# xmcd CD database file
#
# Track frame offsets:
#	150
#	12674
#	26995
#	41609
#	55660
#	65342
#	82409
#	96655
#	112606
#	128592
#
# Disc length: 1881 seconds
#
# Revision: 0
# Processed by: cddbd v1.5.2PL0 Copyright (c) Steve Scherf et al.
# Submitted via: CDex 1.70beta2
#
DISCID=8607570a
DTITLE=Knapp, Adam -  Cdn. - Gettin' Waqrmed Up
DYEAR=2006
DGENRE=Country
TTITLE0=Trouble
TTITLE1=Unpredictable Man
TTITLE2=One Bottle At A Time
TTITLE3=Done Settled Down
TTITLE4=Play That Fiddle Music
TTITLE5=Workin' Man
TTITLE6=Whisket and Women
TTITLE7=Once Upon a Time
TTITLE8=Up and Gone
TTITLE9=Hit Me Like A Freight Train 
EXTD=YEAR: 2006
EXTT0=
EXTT1=
EXTT2=
EXTT3=
EXTT4=
EXTT5=
EXTT6=
EXTT7=
EXTT8=
EXTT9=
PLAYORDER=
